<svg xmlns="http://www.w3.org/2000/svg" height="24" viewBox="0 -960 960 960" width="24"><path d="M480.134-120q-74.673 0-140.41-28.339-65.737-28.34-114.365-76.922-48.627-48.582-76.993-114.257Q120-405.194 120-479.866q0-74.673 28.339-140.41 28.34-65.737 76.922-114.365 48.582-48.627 114.257-76.993Q405.194-840 479.866-840q74.673 0 140.41 28.339 65.737 28.34 114.365 76.922 48.627 48.582 76.993 114.257Q840-554.806 840-480.134q0 74.673-28.339 140.41-28.34 65.737-76.922 114.365-48.582 48.627-114.257 76.993Q554.806-120 480.134-120ZM480-160q134 0 227-93t93-227q0-58.585-20.962-112.831-20.961-54.246-59.346-98.554L268.615-240.308q44.308 39.154 98.554 59.731Q421.415-160 480-160ZM240.308-268.615l451.077-451.077q-43.539-39.923-98.034-60.116Q538.855-800 480-800q-134 0-227 93t-93 227q0 58.585 20.577 112.831t59.731 98.554Z"/></svg>