<?xml version="1.0" encoding="UTF-8"?>
<svg id="Ebene_1" data-name="Ebene 1" xmlns="http://www.w3.org/2000/svg" viewBox="0 0 446.56 156.26">
  <defs>
    <style>
      .cls-1 {
        fill: #fff;
      }

      .cls-2 {
        fill: #b91818;
      }

      .cls-3 {
        fill: #cd1316;
      }

      .cls-4 {
        fill: #1d1d1b;
      }
    </style>
  </defs>
  <path class="cls-4" d="m229.9,135.41c-1.27,0-2.37.5-3.3,1.49l-.06.06v-1.23h-2.79v14.94h2.79v-9.92c0-1.11.18-1.92.55-2.45.37-.53.95-.79,1.73-.79.64,0,1.12.21,1.45.63.33.42.5,1.02.5,1.81v10.73h2.73v-11.67c0-1.15-.31-2.03-.94-2.66-.62-.63-1.51-.94-2.66-.94Z"/>
  <path class="cls-4" d="m213.54,135.41c-1.51,0-2.68.4-3.5,1.21-.82.81-1.21,1.93-1.17,3.36h2.76c0-.79.17-1.4.51-1.83.34-.42.82-.64,1.45-.64s1.06.19,1.38.57c.32.38.48.92.48,1.63v1.78h-.35c-2.45,0-4.15.39-5.12,1.16-.96.78-1.44,2.15-1.45,4.12,0,1.37.29,2.42.88,3.13.59.72,1.45,1.08,2.59,1.08,1.52,0,2.58-.46,3.18-1.37.11-.16.2-.33.26-.5v1.55h2.79v-10.71c0-1.57-.38-2.72-1.13-3.45-.75-.73-1.94-1.1-3.56-1.1Zm1.9,9.54c.04,1.29-.14,2.27-.55,2.94-.41.67-1.02,1-1.84,1-.61,0-1.04-.17-1.31-.52-.26-.34-.39-.91-.4-1.7v.02-.03h0c0-.99.3-1.76.89-2.29.59-.53,1.46-.8,2.6-.8h.61v1.38Z"/>
  <path class="cls-4" d="m199.27,135.41c-1.44,0-2.45.46-3.03,1.37l-.04.08v-7.66h-2.79v21.47h2.79v-1.34l.12.2c.62.97,1.6,1.46,2.94,1.46,1.42,0,2.42-.39,3.01-1.16.58-.78.87-2.11.87-4.01v-5.54c0-1.68-.31-2.92-.93-3.7-.62-.78-1.6-1.17-2.94-1.17Zm1.1,11.03c0,.86-.15,1.49-.46,1.87-.31.39-.81.58-1.52.58-.75,0-1.3-.32-1.66-.96-.36-.64-.53-1.63-.53-2.98v-3.47c-.02-1.5.12-2.53.42-3.1.3-.56.86-.85,1.67-.85.7,0,1.22.24,1.57.72.35.48.52,1.2.52,2.18v6.01Z"/>
  <path class="cls-4" d="m208.52,146.79s0,0,0-.02,0,0,0-.02v.03Z"/>
  <path class="cls-4" d="m270.04,128.94c-2.16,0-3.72.53-4.68,1.61-.96,1.07-1.43,2.81-1.43,5.23v7.91c0,2.75.44,4.64,1.31,5.68.87,1.04,2.47,1.56,4.8,1.56,2.16,0,3.72-.47,4.68-1.42.96-.95,1.43-2.49,1.43-4.62v-9.01c0-2.5-.47-4.28-1.4-5.34-.94-1.06-2.5-1.6-4.71-1.6Zm3.17,15.34c0,1.49-.25,2.57-.75,3.23-.5.67-1.3,1-2.42,1-1.21,0-2.04-.34-2.49-1.03-.45-.69-.68-1.93-.68-3.75v-7.91c0-1.57.25-2.71.75-3.41.5-.7,1.3-1.05,2.42-1.05,1.21,0,2.04.28,2.49.84.45.56.68,1.58.68,3.07v9.01Z"/>
  <rect class="cls-4" x="266.12" y="123.96" width="2.95" height="2.94"/>
  <rect class="cls-4" x="271.01" y="123.96" width="2.95" height="2.94"/>
  <path class="cls-4" d="m287.02,141.74c-.96-.68-1.58-1.17-1.84-1.49-.26-.33-.4-.74-.4-1.25s.13-.87.39-1.12c.26-.25.66-.37,1.19-.37.58,0,.99.17,1.24.51.26.34.37.87.34,1.61v.44h2.74v-.73c.01-1.32-.31-2.29-.97-2.92-.69-.67-1.81-1-3.35-1-1.38,0-2.45.33-3.2,1-.75.67-1.13,1.62-1.13,2.86,0,.85.24,1.59.7,2.21.46.62,1.39,1.42,2.78,2.39,1.05.74,1.76,1.32,2.11,1.75.36.43.54.91.54,1.45,0,.61-.16,1.06-.47,1.37-.31.3-.79.46-1.43.46-.67,0-1.17-.19-1.48-.58-.32-.39-.46-.98-.42-1.76v-.44h-2.74v.7c0,1.36.36,2.38,1.1,3.07.77.74,1.95,1.11,3.55,1.11,1.48,0,2.63-.38,3.44-1.14.8-.76,1.21-1.85,1.21-3.26,0-.84-.26-1.59-.78-2.24-.53-.65-1.57-1.52-3.12-2.62Z"/>
  <path class="cls-4" d="m245.73,129.2v7.53c-.71-.88-1.69-1.32-2.92-1.32-1.35,0-2.35.47-3,1.41-.65.94-.97,2.38-.97,4.33v4.76c0,1.76.32,3.05.95,3.86.63.81,1.64,1.22,3.02,1.22,1.14,0,2.11-.54,2.92-1.63v1.31h2.79v-21.47h-2.79Zm0,15.6c0,1.54-.15,2.61-.46,3.19-.31.58-.88.87-1.71.87-.76,0-1.27-.19-1.52-.56-.25-.38-.38-1.13-.38-2.27v-5.39c0-1.11.16-1.89.47-2.36.31-.47.84-.7,1.57-.7s1.27.23,1.61.7c.34.46.48,1.17.43,2.11v4.4Z"/>
  <path class="cls-4" d="m77.66,138.22c-1.44-.76-2.37-1.38-2.79-1.84-.42-.47-.62-1.13-.62-1.99,0-1.07.24-1.84.71-2.31.47-.48,1.24-.71,2.3-.71.95,0,1.62.26,2.02.78.4.52.6,1.4.6,2.64v.64h2.94v-.64l.02-.49c-.01-1.89-.4-3.24-1.17-4.05-.83-.87-2.31-1.31-4.42-1.31s-3.54.47-4.54,1.42c-1,.95-1.51,2.38-1.51,4.29,0,1.28.37,2.36,1.11,3.26.75.9,2.08,1.86,4,2.88,1.64.86,2.7,1.55,3.18,2.07.48.53.72,1.26.72,2.19,0,1.23-.26,2.11-.79,2.65-.53.54-1.38.82-2.57.82s-1.98-.32-2.41-.94c-.43-.63-.64-1.78-.62-3.46v-.64h-2.98v.64l-.02.58c0,2.15.43,3.71,1.28,4.67.92,1.04,2.51,1.57,4.75,1.57,2.09,0,3.66-.51,4.71-1.54,1.05-1.03,1.57-2.56,1.57-4.61,0-1.49-.35-2.66-1.05-3.52-.71-.85-2.18-1.87-4.42-3.04Z"/>
  <path class="cls-4" d="m94.53,135.41c-1.24,0-2.34.65-3.29,1.95l-.02.02v-1.64h-2.79v20.53h2.79v-6.65l.15.2c.62.79,1.59,1.19,2.92,1.19s2.32-.41,2.94-1.24c.62-.83.93-2.14.93-3.93v-5.54c0-1.62-.3-2.84-.91-3.65-.6-.81-1.52-1.22-2.73-1.22Zm.87,10.24c0,1.06-.17,1.86-.5,2.41-.33.55-.83.83-1.48.83-.75,0-1.31-.23-1.66-.69-.36-.46-.53-1.18-.53-2.15v-5.1c-.02-1.14.15-1.99.53-2.56.37-.57.93-.85,1.68-.85.66,0,1.15.21,1.48.64s.49,1.07.49,1.93v5.54Z"/>
  <path class="cls-4" d="m60.93,135.41c-1.67,0-2.9.45-3.69,1.34-.8.89-1.2,2.27-1.2,4.12v4.35c0,2.11.37,3.6,1.1,4.47.73.87,1.99,1.3,3.79,1.3s2.97-.36,3.77-1.07c.8-.71,1.16-1.81,1.09-3.29v-.44h-2.79v.44c.03.77-.12,1.34-.46,1.71-.34.37-.87.55-1.61.55-.85,0-1.42-.24-1.69-.71-.27-.47-.41-1.44-.41-2.91v-1.1h7.01v-3.3c0-1.9-.39-3.28-1.18-4.16-.79-.87-2.03-1.31-3.72-1.31Zm2.12,6.7h-4.22v-1.19c0-1.21.16-2.08.49-2.61.33-.53.87-.8,1.61-.8.8,0,1.36.25,1.66.73.3.49.46,1.38.46,2.68v1.19Z"/>
  <polygon class="cls-4" points="159.96 129.2 156.68 147.49 156.68 147.49 153.26 129.2 151.7 129.2 150.15 129.2 154.68 150.67 156.5 150.67 158.29 150.67 162.82 129.2 161.39 129.2 159.96 129.2"/>
  <path class="cls-4" d="m185.56,136.99l-.38.53v-1.8h-2.79v14.94h2.79v-8.23c0-1.58.26-2.69.77-3.31.51-.62,1.41-.94,2.7-.94v-2.78c-1.22.02-2.25.55-3.09,1.58Z"/>
  <path class="cls-4" d="m172.34,135.41c-1.67,0-2.9.45-3.69,1.34-.8.89-1.2,2.27-1.2,4.12v4.35c0,2.11.36,3.6,1.1,4.47.73.87,2,1.3,3.79,1.3s2.97-.36,3.77-1.07c.8-.71,1.16-1.81,1.09-3.29v-.44h-2.79v.44c.03.77-.12,1.34-.46,1.71-.34.37-.88.55-1.61.55-.85,0-1.42-.24-1.69-.71-.27-.47-.41-1.44-.41-2.91v-1.1h7.01v-3.3c0-1.9-.39-3.28-1.18-4.16-.79-.87-2.03-1.31-3.72-1.31Zm2.12,6.7h-4.22v-1.19c0-1.21.17-2.08.5-2.61.33-.53.87-.8,1.61-.8.8,0,1.36.25,1.66.73.3.49.46,1.38.46,2.68v1.19Z"/>
  <path class="cls-4" d="m133.99,131.88l-2.79,1.16v2.69h-1.95v2.05h1.95v10.04c0,1.16.24,1.97.73,2.45.49.48,1.33.71,2.53.71.47.01,1.05-.06,1.75-.21v-1.89c-.83,0-1.41-.11-1.74-.33-.33-.22-.49-.62-.49-1.17v-9.6h2.22v-2.05h-2.22v-3.85Z"/>
  <path class="cls-4" d="m121.91,136.99l-.38.53v-1.8h-2.79v14.94h2.79v-8.23c0-1.58.26-2.69.77-3.31.51-.62,1.41-.94,2.7-.94v-2.78c-1.22.02-2.25.55-3.09,1.58Z"/>
  <path class="cls-4" d="m108.34,135.41c-1.55,0-2.75.48-3.59,1.42-.84.95-1.26,2.29-1.26,4.04v4.35c0,2,.39,3.46,1.17,4.38.78.92,2,1.39,3.68,1.39s2.95-.45,3.71-1.35c.76-.9,1.13-2.37,1.13-4.41v-4.35c0-1.9-.39-3.28-1.16-4.16-.78-.87-2-1.31-3.68-1.31Zm2.06,10.09c0,1.2-.16,2.06-.48,2.59-.32.53-.84.8-1.58.8-.78,0-1.32-.25-1.61-.75-.29-.5-.44-1.42-.44-2.75v-4.35c0-1.25.16-2.15.48-2.7.32-.55.84-.83,1.58-.83s1.23.29,1.56.88c.33.58.5,1.5.5,2.76v4.35Z"/>
  <path class="cls-4" d="m373.9,146.41c.04.84-.09,1.47-.39,1.87-.3.41-.78.61-1.44.61-.73,0-1.24-.22-1.51-.65-.27-.44-.41-1.24-.41-2.41v-5.46c0-1.07.15-1.81.44-2.23.29-.42.8-.63,1.53-.63.59,0,1.01.19,1.27.58.26.38.37.99.33,1.83v.44h2.79v-.76c0-1.39-.32-2.43-.97-3.11-.7-.72-1.83-1.08-3.38-1.08-1.73,0-2.96.43-3.69,1.28-.73.85-1.1,2.28-1.1,4.28v4.98c0,1.75.38,3.04,1.15,3.84.77.81,1.98,1.21,3.63,1.21s2.76-.37,3.5-1.12c.74-.75,1.09-1.9,1.04-3.46v-.44h-2.79v.44Z"/>
  <rect class="cls-4" x="359.04" y="129.23" width="2.94" height="2.78"/>
  <polygon class="cls-4" points="359.12 135.73 359.12 150.67 360.52 150.67 361.9 150.67 361.9 135.73 360.5 135.73 359.12 135.73"/>
  <path class="cls-4" d="m388.08,135.41c-1.18,0-2.25.53-3.21,1.6l-.06.06v-7.87h-2.79v21.47h2.79v-9.91c0-1.11.18-1.92.56-2.46.37-.53.94-.8,1.71-.8.63,0,1.11.21,1.43.62.33.41.49,1.01.49,1.79v10.76h2.72v-11.63c0-1.17-.31-2.06-.94-2.69-.63-.63-1.53-.94-2.7-.94Z"/>
  <path class="cls-4" d="m349.13,135.41c-1.67,0-2.9.45-3.69,1.34-.8.89-1.2,2.27-1.2,4.12v4.35c0,2.11.37,3.6,1.1,4.47.73.87,1.99,1.3,3.79,1.3s2.97-.36,3.77-1.07c.8-.71,1.16-1.81,1.09-3.29v-.44h-2.79v.44c.03.77-.12,1.34-.46,1.71-.34.37-.88.55-1.61.55-.85,0-1.42-.24-1.69-.71-.28-.47-.41-1.44-.41-2.91v-1.1h7.01v-3.3c0-1.9-.39-3.28-1.18-4.16-.79-.87-2.03-1.31-3.72-1.31Zm2.12,6.7h-4.22v-1.19c0-1.21.16-2.08.49-2.61.33-.53.87-.8,1.61-.8.8,0,1.36.25,1.66.73.31.49.46,1.38.46,2.68v1.19Z"/>
  <path class="cls-4" d="m325.57,136.99l-.38.53v-1.8h-2.79v14.94h2.79v-8.23c0-1.58.26-2.69.77-3.31.51-.62,1.41-.94,2.7-.94v-2.78c-1.22.02-2.25.55-3.09,1.58Z"/>
  <path class="cls-4" d="m312.33,135.41c-1.67,0-2.9.45-3.7,1.34-.79.89-1.2,2.27-1.2,4.12v4.35c0,2.11.37,3.6,1.1,4.47.73.87,1.99,1.3,3.79,1.3s2.97-.36,3.77-1.07c.8-.71,1.16-1.81,1.09-3.29v-.44h-2.79v.44c.03.77-.12,1.34-.47,1.71-.34.37-.87.55-1.61.55-.85,0-1.42-.24-1.69-.71-.27-.47-.41-1.44-.41-2.91v-1.1h7.01v-3.3c0-1.9-.39-3.28-1.18-4.16-.79-.87-2.03-1.31-3.72-1.31Zm2.12,6.7h-4.22v-1.19c0-1.21.17-2.08.49-2.61.33-.53.87-.8,1.61-.8.8,0,1.35.25,1.66.73.3.49.46,1.38.46,2.68v1.19Z"/>
  <path class="cls-4" d="m336.69,136.99l-.38.53v-1.8h-2.79v14.94h2.79v-8.23c0-1.58.26-2.69.77-3.31.52-.62,1.41-.94,2.71-.94v-2.78c-1.22.02-2.25.55-3.09,1.58Z"/>
  <path class="cls-4" d="m300.25,131.88l-2.79,1.16v2.69h-1.95v2.05h1.95v10.04c0,1.16.25,1.97.73,2.45.49.48,1.33.71,2.53.71.47.01,1.05-.06,1.75-.21v-1.89c-.83,0-1.41-.11-1.74-.33-.32-.22-.49-.62-.49-1.17v-9.6h2.22v-2.05h-2.22v-3.85Z"/>
  <g>
    <g>
      <path class="cls-2" d="m385.95,8.9H115.87c-29.04,0-52.59,23.53-52.59,52.55s23.55,52.54,52.59,52.54h270.08c29.04,0,52.59-23.53,52.59-52.54s-23.55-52.55-52.59-52.55Z"/>
      <path class="cls-1" d="m385.95,8.9H115.87c-29.04,0-52.59,23.53-52.59,52.55s23.55,52.54,52.59,52.54h270.08c29.04,0,52.59-23.53,52.59-52.54s-23.55-52.55-52.59-52.55Z"/>
    </g>
    <path class="cls-3" d="m385.5,0H61.06C27.33,0,0,27.32,0,61.01s27.33,61,61.06,61h324.45c33.72,0,61.06-27.31,61.06-61S419.23,0,385.5,0Zm.45,114H115.87c-29.04,0-52.59-23.53-52.59-52.54S86.83,8.9,115.87,8.9h270.08c29.04,0,52.59,23.53,52.59,52.55s-23.55,52.54-52.59,52.54Z"/>
  </g>
  <path class="cls-4" d="m380.28,30.73c5.64,0,10.79,1.23,15.46,3.66l6.4-10.92c-6.57-3.47-13.84-5.21-21.81-5.21s-15.91,1.93-22.7,5.79l6.36,10.87c4.86-2.77,10.28-4.19,16.29-4.19Z"/>
  <path class="cls-4" d="m412.42,30.82c-1.33-1.24-2.7-2.37-4.1-3.42l-8.18,9.76c1.05.78,2.09,1.6,3.08,2.52,6.46,5.96,9.65,13.22,9.56,21.77-.09,8.55-3.32,15.71-9.7,21.5-6.38,5.79-13.98,8.68-22.8,8.68s-16.27-2.89-22.61-8.68c-6.33-5.79-9.54-12.95-9.63-21.5,0-8.55,3.16-15.8,9.49-21.77.73-.69,1.48-1.32,2.24-1.93l-8.1-9.67c-1.08.86-2.14,1.77-3.18,2.74-8.92,8.37-13.38,18.57-13.38,30.6s4.46,22.18,13.38,30.47c8.91,8.29,19.52,12.43,31.83,12.43s23.09-4.14,32.1-12.43c9-8.28,13.51-18.44,13.51-30.47s-4.5-22.23-13.51-30.6Z"/>
  <path class="cls-4" d="m231.81,52.55h-35.27c-2.76,0-5.12-.94-7.08-2.82-1.96-1.88-2.94-4.21-2.94-6.99s.98-4.97,2.94-6.85c1.96-1.88,4.32-2.82,7.08-2.82h57.68v-13.58h-58.16c-6.42,0-11.88,2.28-16.38,6.83-4.5,4.55-6.75,9.99-6.75,16.33,0,4.2,1.07,8.12,3.21,11.78,4.46,7.59,11.19,11.38,20.19,11.38h34.63c3.39,0,6.26,1.13,8.63,3.39,2.36,2.26,3.54,5.03,3.54,8.3s-1.2,6.05-3.61,8.3c-2.41,2.26-5.26,3.39-8.56,3.39h-57.09v13.92h57.25c7.41,0,13.67-2.36,18.8-7.07,5.13-4.71,7.69-10.8,7.69-18.27,0-4.45-1.11-8.62-3.34-12.54-4.81-8.45-12.29-12.67-22.45-12.67Z"/>
  <path class="cls-4" d="m153.94,27.34c-7.58-5.97-18.05-8.99-31.42-9.08-12.39,0-23.04,4.19-31.96,12.56-8.91,8.37-13.37,18.57-13.37,30.6s4.43,22.29,13.3,30.53c8.87,8.24,19.55,12.36,32.03,12.36,8.91,0,17.02-1.73,24.33-5.21,8.02-3.65,13.86-8.9,17.51-15.75l-8.95-8.68c-2.05,5.43-6.81,9.74-14.3,12.94-6.41,2.67-13.18,4-20.31,4-8.37,0-15.52-2.94-21.45-8.81-5.92-5.88-8.93-13-9.02-21.37-.09-8.55,3.05-15.8,9.42-21.77,6.37-5.96,13.96-8.95,22.78-8.95,17.63,0,27.7,8.04,30.19,24.13l-.13.13h-49.47v10.69h64.18c.09-1.96.13-3.83.13-5.61,0-14.78-4.5-25.69-13.5-32.73Z"/>
  <polygon class="cls-4" points="297.95 84.88 274.28 19.59 260.92 19.59 292.87 103.09 303.03 103.09 334.99 19.59 321.75 19.59 297.95 84.88"/>
</svg>