<?xml version="1.0" encoding="UTF-8"?>
<svg id="Ebene_1" data-name="Ebene 1" xmlns="http://www.w3.org/2000/svg" viewBox="0 0 1271.65 1041.01">
  <defs>
    <style>
      .cls-1 {
        fill: #3d4451;
      }

      .cls-2 {
        fill: #3d4552;
      }
    </style>
  </defs>
  <g>
    <path class="cls-1" d="m839.4,554.81c-.77.53-1.73.82-2.79.77-2.36-.19-4.13-2.21-3.99-4.56.38-5.47.43-8.59.43-8.64,0-2.36,1.97-4.28,4.32-4.23,2.36,0,4.28,1.97,4.23,4.32,0,.14-.05,3.36-.48,9.17-.09,1.35-.81,2.5-1.82,3.17h.1Z"/>
    <path class="cls-1" d="m110.36,954.99h.05c-4.46,2.93-8.93,5.95-13.3,8.98-.1.05-1.49,1.01-1.49,1.01-1.96,1.34-4.61.91-5.95-1.06-1.34-1.92-.91-4.61,1.01-5.95l1.39-.96c4.51-3.17,9.02-6.24,13.49-9.12,1.96-1.3,4.65-.72,5.95,1.25,1.25,1.92.77,4.52-1.15,5.86h0Zm-63.86,48.55l.05.05c-1.77,1.25-4.27.96-5.71-.72-1.54-1.78-1.35-4.51.43-6.05,4.56-3.93,9.22-7.82,13.73-11.57,1.82-1.48,4.51-1.24,6,.58,1.48,1.82,1.24,4.51-.58,6.05-4.47,3.65-9.03,7.49-13.59,11.43-.15.1-.24.19-.34.24h0Zm118.17-78.98h.05s-.43.28-.67.38c-5.24,2.45-10.57,5.04-15.8,7.78-2.11,1.11-4.7.29-5.76-1.82-1.11-2.11-.29-4.66,1.82-5.76,5.33-2.78,10.8-5.47,16.13-7.97,2.16-1.01,4.71-.1,5.67,2.06.91,1.92.24,4.13-1.44,5.33h0Zm60.17-26.11c.48,1.78-.24,3.65-1.68,4.66-.38.28-.86.48-1.34.62-5.67,1.53-11.34,3.22-16.86,5.04-2.26.72-4.66-.48-5.38-2.74s.53-4.66,2.74-5.38c5.67-1.88,11.48-3.61,17.29-5.19,2.3-.62,4.65.72,5.23,2.98h0Zm59.53-6.69l.05-.05c-.58.39-1.25.67-1.97.77-5.96.68-11.86,1.44-17.53,2.26-2.35.34-4.51-1.25-4.85-3.6s1.25-4.51,3.6-4.85c5.77-.86,11.77-1.63,17.82-2.3,2.36-.24,4.47,1.44,4.71,3.79.2,1.64-.57,3.13-1.82,3.99h-.01Zm62.34-3.69c-.67.48-1.49.77-2.35.77-5.96.15-11.86.29-17.77.53-2.36.1-4.32-1.78-4.42-4.13-.1-2.36,1.73-4.37,4.13-4.47,5.95-.24,11.91-.39,17.91-.53,2.35,0,4.32,1.83,4.37,4.18,0,1.49-.67,2.83-1.82,3.6h0l-.05.05Zm62.36-.77v-.05c-.67.48-1.49.77-2.4.77-6,.1-11.95.19-17.86.24-2.35,0-4.32-1.88-4.32-4.23s1.88-4.27,4.23-4.32c5.91-.05,11.82-.14,17.82-.24,2.35,0,4.32,1.83,4.37,4.23,0,1.49-.72,2.78-1.82,3.6h-.02Zm419.95-270.83l.05-.05c-.96.67-2.26.96-3.51.62-2.3-.58-3.7-2.89-3.12-5.19,1.44-5.67,2.79-11.48,3.94-17.19.48-2.3,2.74-3.79,5.04-3.31,2.3.48,3.79,2.74,3.31,5.09-1.2,5.86-2.54,11.82-4.03,17.58-.24,1.06-.86,1.87-1.68,2.45h0Zm-357.61,267.89v.05c-.57.43-1.34.72-2.11.77-5.81.48-11.81.91-17.86,1.25-2.35.15-4.41-1.68-4.51-4.03-.15-2.35,1.68-4.37,4.03-4.51,6-.34,11.96-.77,17.67-1.25,2.35-.19,4.42,1.59,4.61,3.89.15,1.58-.62,3.02-1.82,3.84h-.01Zm337.5-208.91h0c-1.15.81-2.74,1.01-4.18.43-2.16-.96-3.17-3.46-2.21-5.62,2.35-5.33,4.56-10.86,6.67-16.33.86-2.21,3.31-3.31,5.52-2.5s3.32,3.31,2.5,5.52c-2.16,5.62-4.42,11.24-6.82,16.71-.34.77-.87,1.35-1.49,1.78h0Zm-275.68,200.91h.05c-.48.34-1.06.58-1.68.72-5.81,1.06-11.77,2.07-17.72,2.98-2.35.34-4.52-1.25-4.9-3.6-.34-2.35,1.25-4.52,3.6-4.9,5.86-.87,11.72-1.87,17.43-2.93,2.3-.43,4.56,1.11,4.99,3.46.33,1.68-.44,3.36-1.78,4.27h.01Zm245.75-146.27v.1c-1.39,1.01-3.36,1.06-4.85,0-1.97-1.29-2.49-3.98-1.15-5.95,3.27-4.85,6.43-9.85,9.46-14.89,1.2-2.02,3.84-2.69,5.86-1.49s2.69,3.84,1.49,5.86c-3.07,5.19-6.34,10.32-9.7,15.27-.28.43-.67.81-1.1,1.1h0Zm-185.06,131.81v-.05c-.39.24-.77.48-1.25.62-5.72,1.68-11.53,3.31-17.29,4.85-2.3.57-4.65-.77-5.23-3.03-.58-2.3.76-4.65,3.07-5.23,5.67-1.48,11.38-3.12,17.05-4.75,2.26-.67,4.66.62,5.33,2.88.53,1.83-.19,3.7-1.68,4.71h0Zm145.4-83.6h0c-1.68,1.15-3.98,1.01-5.47-.48-1.68-1.68-1.68-4.37,0-6.05,4.13-4.13,8.21-8.4,12.1-12.77,1.58-1.78,4.27-1.92,6.05-.34s1.92,4.27.34,6.05c-4.04,4.47-8.21,8.88-12.44,13.11-.2.19-.39.34-.58.48h0Zm-87.11,61.31h0s-.39.24-.58.34c-5.38,2.59-10.9,5.09-16.47,7.44-2.21.92-4.71-.09-5.62-2.3s.15-4.71,2.31-5.62c5.43-2.3,10.81-4.75,16.04-7.25,2.11-1.01,4.7-.14,5.71,2.02.92,1.92.29,4.18-1.39,5.38h0Zm45.9-26.89h0c-2.4,1.68-4.8,3.32-7.25,4.95-1.96,1.3-4.65.77-5.95-1.2-1.3-1.96-.67-4.7,1.2-5.95,4.95-3.26,9.75-6.67,14.41-10.08,1.87-1.44,4.56-1.01,6,.86,1.4,1.87,1.01,4.56-.86,6-2.5,1.83-4.99,3.65-7.54,5.43h-.01Z"/>
    <path class="cls-1" d="m6.74,1040.25h0c-1.68,1.15-4.03,1.01-5.52-.53-1.63-1.68-1.63-4.37.05-6.05,2.16-2.11,4.27-4.18,6.43-6.24,1.73-1.64,4.42-1.59,6.05.14,1.63,1.68,1.58,4.42-.1,6.05-2.12,2.01-4.23,4.08-6.39,6.19-.15.14-.34.33-.53.43h0Z"/>
  </g>
  <path class="cls-2" d="m829.1,502.49c-1.2.38-2.4.72-3.6.96-13.93,2.98-31.89-2.73-49.27-15.7-22.33-16.66-37.74-40.72-39.28-61.27l-7.25-95.46c-1.97-26.17,25.55-65.16,35.44-78.22l-1.92-46.24c-.38-9.74,6.92-18.2,16.33-18.82,1.44-.1,15.42-1.39,20.7-1.92,4.71-.43,8.74-4.17,9.8-9.12,13.4-63.29,35.3-86.87,36.21-87.88,1.49-1.53,3.94-1.63,5.52-.14s1.63,3.94.14,5.52c-.24.24-21.37,23.33-34.24,84.08-1.73,8.26-8.64,14.55-16.71,15.27-.77.05-19.07,1.78-20.89,1.92-5.24.34-9.32,5.19-9.08,10.71l1.97,47.64c0,.92-.24,1.83-.82,2.55-17.72,23.15-36.16,54.74-34.72,74l7.25,95.46c1.39,18.39,15.61,40.24,36.16,55.61,15.32,11.48,31.41,16.81,42.98,14.31,4.18-.91,8.21-2.73,11.96-5.47-5.05-6.86-8.12-15.56-8.84-24.92l-16.52-217.67c-.58-7.92.48-15.94,3.17-23.53-3.08-.43-6.15-.33-9.32.34-.38.1-.82.1-1.2.05-.48.09-2.25.86-6.24,4.32-1.1.96-2.74,1.2-4.08.62-1.39-.58-2.3-1.92-2.35-3.41l-.43-10.52c-.05-1.78-.14-5.09-.24-6.05-.72-8.79,8.55-10.37,14.74-11.38,1.88-.34,3.65-.63,5.19-1.01,3.79-1.01,13.88-3.79,14.79-8.21,1.06-5.14,1.82-11.24,2.64-17.72,2.78-22.33,6.24-50.08,25.93-70.06,1.49-1.54,3.98-1.54,5.52,0,1.54,1.49,1.54,3.98,0,5.52-17.81,18.11-21.08,44.42-23.72,65.55-.82,6.62-1.59,12.87-2.74,18.34-1.92,9.13-13.93,12.39-20.36,14.17-1.92.53-3.98.86-5.95,1.2-5.57.91-8.36,1.68-8.26,3.07.1,1.05.19,3.64.29,6.43l.1,3.12c2.07-1.2,3.84-1.73,5.38-1.68,5.72-1.11,11.39-.82,16.86.91,1.05.33,1.92,1.1,2.35,2.11s.43,2.16,0,3.22c-3.41,7.59-4.89,15.95-4.27,24.11l16.52,217.67c.67,9.17,4.03,17.48,9.46,23.48.67.77,1.06,1.77,1.01,2.83s-.53,2.02-1.3,2.69c-4.47,3.98-9.56,6.91-14.79,8.64"/>
  <path class="cls-2" d="m751.24,402.81s-.2.05-.34.05c-.87.1-1.63-.53-1.73-1.39-.67-6.24-1.06-13.02-1.2-20.17,0-.86.68-1.58,1.54-1.58s1.58.68,1.58,1.54c.14,7.06.53,13.78,1.15,19.93.09.72-.39,1.44-1.06,1.63"/>
  <path class="cls-2" d="m818.08,483.1s-.43.1-.67.05c-35.82-4.95-57.29-26.12-65.5-64.73-.19-.86.39-1.68,1.2-1.87s1.68.34,1.87,1.2c7.93,37.17,28.53,57.53,62.91,62.33.86.1,1.44.92,1.34,1.78-.1.63-.53,1.11-1.06,1.25"/>
  <path class="cls-2" d="m894.89,502.36c-3.31,1.06-6.77,1.73-10.32,2.02l-3.36.24c-11.38.76-22.42-3.08-31.02-10.76-9.12-8.17-14.4-19.6-14.93-32.13-.09-2.16,1.59-3.99,3.75-4.08s3.98,1.59,4.08,3.75c.43,10.42,4.8,19.88,12.34,26.65,7.01,6.29,16.04,9.41,25.31,8.79l3.36-.24c19.98-1.35,35.58-19.55,34.72-40.53v-.38c4.08-67.23,1.2-137.53-8.69-209.03v-.38c-.33-8.3-3.17-14.88-8.4-19.54-6.53-5.81-16.76-8.6-28.86-7.78l-3.36.24c-8.5.57-36.25,4.61-35.1,32.46l5.71,137.72c.09,2.16-1.59,3.99-3.75,4.08s-3.98-1.59-4.08-3.75l-5.71-137.72c-.96-23.19,15.27-38.71,42.35-40.53l3.36-.24c14.21-.96,26.5,2.5,34.57,9.75,6.73,6.01,10.52,14.6,11,24.83,9.89,71.88,12.82,142.57,8.74,210.18.81,21.37-12.73,40.29-31.65,46.44"/>
  <path class="cls-2" d="m798.43,305.44c-1.25.38-2.12,1.73-2.02,3.12l6.29,87.4c.05.82.43,1.54,1.01,2.02.53.44,1.2.68,1.87.58,1.49-.15,2.65-1.64,2.55-3.22l-6.29-87.4c-.05-.82-.43-1.54-1.01-2.02-.53-.44-1.2-.68-1.87-.58-.19,0-.39.05-.53.1m8.64,95.99c-.38.14-.77.19-1.2.24-1.54.14-3.03-.34-4.23-1.3-1.25-1.06-1.97-2.55-2.11-4.18l-6.29-87.4c-.24-3.31,2.16-6.24,5.38-6.58,1.54-.14,3.03.34,4.23,1.3,1.25,1.06,1.97,2.55,2.11,4.18l6.29,87.4c.19,2.88-1.59,5.47-4.18,6.29"/>
  <path class="cls-2" d="m794.93,256.65c-1.25.38-2.12,1.73-2.02,3.12l1.97,27.47c.05.82.43,1.54,1.01,2.02.53.44,1.2.68,1.87.58,1.54-.15,2.69-1.64,2.55-3.22l-1.97-27.52c-.05-.82-.43-1.54-1.01-2.02-.53-.44-1.2-.68-1.87-.58-.19,0-.39.05-.53.1m4.37,36.07c-.38.14-.77.19-1.2.24-1.54.14-3.03-.34-4.23-1.3-1.25-1.06-1.97-2.55-2.11-4.18l-1.97-27.52c-.24-3.31,2.16-6.24,5.38-6.58,1.54-.15,3.03.33,4.23,1.34,1.25,1.06,1.97,2.55,2.11,4.18l1.97,27.52c.19,2.88-1.59,5.47-4.18,6.29"/>
  <path class="cls-2" d="m1004.4,625.09c-4.27,1.39-8.6,2.69-12.87,3.89-11.86,3.31-33.95,9.46-41.68-7.54-2.5-5.47-2.5-10.9-.05-15.7,4.13-8.07,14.36-12.68,22.57-14.31,36.45-7.25,82.98-21.76,152.18-74.29.33-.24.67-.52,1.1-.86,4.17-3.32,14.02-11.1,21.99-3.51,10.03,9.56,2.16,18.15-.77,21.37-31.16,34.04-70.49,61.8-113.71,80.24-2.02.87-4.28-.09-5.14-2.06-.87-1.97.09-4.28,2.06-5.14,42.21-18.01,80.62-45.09,111.02-78.37,4.9-5.33,4.61-7.2,1.15-10.47-2.54-2.44-6.38-.28-11.81,3.99-.43.34-.86.67-1.2.96-70.44,53.5-118.08,68.29-155.39,75.73-6.58,1.3-14.45,5-17.14,10.23-1.39,2.69-1.3,5.62.19,8.93,4.56,10.09,19.16,6.97,32.51,3.22,4.22-1.15,8.45-2.45,12.58-3.79,2.07-.67,4.28.48,4.9,2.5.67,2.07-.48,4.23-2.5,4.9"/>
  <path class="cls-2" d="m969.38,606.67c-3.21,1.06-5.37,3.98-4.75,6.53.34,1.3,1.25,2.07,1.92,2.5,1.44.86,3.41,1.06,5.28.48l10.04-2.83c3.31-.96,5.66-3.99,5.04-6.63-.34-1.3-1.25-2.07-1.92-2.5-1.44-.86-3.36-1.06-5.28-.48l-10.04,2.83s-.19.05-.29.1m13.78,9.55s-.29.09-.43.14l-10.04,2.83c-2.74.76-5.52.48-7.73-.82-1.73-1.01-2.93-2.6-3.41-4.47-1.01-4.27,2.21-8.88,7.25-10.32l10.04-2.83c2.74-.76,5.52-.48,7.73.82,1.73,1.01,2.93,2.6,3.41,4.47,1.01,4.13-2.07,8.65-6.82,10.23"/>
  <path class="cls-2" d="m919.15,26.84c-1.87.63-3.93-.29-4.75-2.11-.86-1.97,0-4.28,1.97-5.14,5.47-2.44,11.19-4.7,16.9-6.67,2.11-.67,4.27.38,4.99,2.4.72,2.01-.38,4.27-2.4,4.99-5.53,1.92-11.05,4.08-16.33,6.43-.14.04-.24.09-.38.14"/>
  <path class="cls-2" d="m1226.31,176.9c-3.41,1.11-7.11,1.54-10.9,1.3-8.83-.68-16.75-5.09-21.7-12.2-53.68-76.54-80.48-88.98-133.06-100.79-51.43-11.57-82.45-11.81-163.36,34.19-7.58,4.32-17.09,4.85-25.35,1.44-8.01-3.31-13.87-9.75-16.13-17.67-1.39-4.94-1.53-10.22-.43-15.17,1.68-7.54,15.32-22.47,38.03-36.35,1.83-1.1,4.23-.52,5.38,1.3,1.1,1.83.52,4.23-1.3,5.38-22.48,13.74-33.57,27.23-34.48,31.41-.86,3.74-.72,7.58.34,11.33,1.58,5.62,5.81,10.18,11.57,12.58,6.1,2.5,13.02,2.11,18.54-1.01,83.31-47.35,115.44-47.01,168.93-35.01,53.54,12.05,82.74,25.5,137.72,103.96,3.55,5.09,9.51,8.4,15.94,8.88,6,.43,11.62-1.59,15.51-5.62,2.93-3.07,5-6.87,5.91-10.9,1.25-5.67-6.67-32.75-32.94-63.29-22.47-26.17-63.72-60.56-132.44-75.97-33.13-7.45-65.5-8.84-96.18-4.18-2.11.33-4.13-1.16-4.42-3.27-.33-2.12,1.16-4.13,3.27-4.47,31.7-4.8,65.02-3.36,99.07,4.32,70.78,15.9,113.37,51.48,136.66,78.51,26.07,30.3,36.88,60.17,34.62,70.11-1.21,5.48-3.94,10.52-7.88,14.6-2.97,3.12-6.67,5.43-10.8,6.77"/>
  <path class="cls-2" d="m1139.36,85.55c-.48.15-.96.1-1.39-.19-23.67-16.81-49.32-28.62-74.19-34.24-44.04-9.89-93.74-4.22-136.38,15.61-.76.38-1.68-.01-2.06-.77s0-1.72.77-2.06c43.22-20.12,93.64-25.89,138.35-15.85,25.26,5.67,51.34,17.67,75.3,34.72.72.48.86,1.49.38,2.16-.19.29-.48.48-.77.58"/>
  <path class="cls-2" d="m1183.5,126.08c-.58.19-1.25,0-1.68-.48-7.3-8.74-15.66-17.24-24.78-25.21-.62-.58-.72-1.54-.14-2.21s1.54-.72,2.21-.14c9.26,8.06,17.71,16.71,25.11,25.59.58.67.48,1.63-.19,2.21-.15.15-.34.24-.53.29"/>
  <path class="cls-2" d="m1047.51,21.82c2.21,1.92,15.8,5,21.75,6.34l1.2.29c9.84,2.21,18.39,4.13,21.08,3.27-1.77-1.87-10.18-6-21.22-8.5-11.53-2.59-20.8-2.4-22.86-1.39m45.1,12.76c-3.46,1.15-10.13-.29-22.86-3.12l-1.2-.29c-18.25-4.08-23.44-5.95-24.3-8.74-.29-.92-.05-1.83.62-2.55,3.17-3.41,17.72-1.68,26.17.24,9.07,2.07,22.95,7.01,23.91,11.24.24.96-.09,1.88-.91,2.5-.38.34-.86.58-1.44.77"/>
  <path class="cls-2" d="m1150.33,565.4c-15.46,5.04-31.55,6.82-44.42,4.66-2.12-.33-3.56-2.35-3.22-4.51.33-2.12,2.35-3.56,4.51-3.22,27.32,4.61,70.45-10.03,85.14-35.82l47.4-83.17c9.56-16.76,6.44-53.21.29-81.73-.2-.91-.05-1.82.38-2.64l22.19-42.21c2.59-4.95.96-11.04-3.6-13.59-1.59-.86-17.39-10.28-18.06-10.66-6.97-4.13-10.52-12.72-8.55-20.98,14.4-60.46,5.14-90.37,5.04-90.66-.67-2.07.48-4.23,2.5-4.9,2.07-.67,4.23.44,4.9,2.5.43,1.3,10.13,31.98-4.85,94.89-1.15,4.95.87,10.04,4.95,12.44,4.56,2.68,16.66,9.89,17.91,10.56,8.21,4.61,11.23,15.37,6.72,24.01l-21.51,40.96c3.36,16.04,11.57,63.05-1.44,85.86l-47.4,83.17c-9.22,16.19-28.48,28.38-48.84,35.01"/>
  <path class="cls-2" d="m1082.68,555.3c-1.58.53-3.36,0-4.37-1.44-1.78-2.55-3.36-5.33-4.61-8.31-.38-.96-.43-2.02,0-2.98.38-.96,1.15-1.73,2.11-2.11,7.44-3.07,14.02-9.17,18.58-17.14l108.04-189.68c4.08-7.11,6.29-15.27,6.43-23.63,0-1.1.52-2.16,1.34-2.88.86-.72,1.97-1.05,3.07-.91,5.67.77,10.9,2.88,15.61,6.39,1.44.62,2.79,1.87,4.13,3.84l1.39-2.69c1.25-2.4,2.5-4.85,3.03-5.81.72-1.2-1.54-3.07-6.15-6.29-1.68-1.15-3.36-2.35-4.85-3.65-5.09-4.37-14.55-12.43-12.34-21.51,1.3-5.43,3.27-11.43,5.38-17.77,6.68-20.22,14.94-45.43,6.58-69.44-.72-2.02.38-4.28,2.4-4.95,1.92-.67,4.28.38,4.95,2.4,9.22,26.51.48,53.06-6.58,74.43-2.02,6.19-3.94,12-5.19,17.14-1.06,4.41,6.86,11.18,9.84,13.73,1.2,1.01,2.69,2.07,4.27,3.17,5.14,3.55,12.87,8.93,8.45,16.61-.48.86-2.02,3.84-2.88,5.47l-4.85,9.22c-.67,1.34-2.06,2.11-3.6,2.06-1.49-.04-2.83-.96-3.41-2.3-2.16-4.8-3.41-6.24-3.79-6.58-.39-.15-.72-.34-1.06-.58-2.55-1.97-5.33-3.41-8.26-4.32-.81,7.97-3.26,15.71-7.2,22.62l-108.04,189.68c-4.66,8.17-11.19,14.7-18.63,18.73.67,1.21,1.39,2.41,2.16,3.51,1.25,1.78.82,4.18-.91,5.43-.34.24-.68.43-1.06.53"/>
  <path class="cls-2" d="m1149.99,547.57c-.82.24-1.68-.14-1.97-.96s.14-1.73.96-2.02c21.56-7.73,40.15-27.71,56.76-61.18.38-.77,1.34-1.1,2.11-.72s1.1,1.29.72,2.06c-16.95,34.19-36.11,54.74-58.49,62.71h0"/>
  <path class="cls-2" d="m1069.11,542.42c-.38.15-.72.24-1.1.34-11.09,3.32-22.71,2.07-32.65-3.55l-2.93-1.63c-21.08-11.81-28.81-39.47-17.19-61.75,25.21-62.86,58.11-125.52,97.82-186.27,4.8-9.08,11.95-15.22,20.55-17.77,10.42-3.08,23-.96,35.44,6l2.98,1.63c23.68,13.25,31.7,34.24,20.94,54.79l-65.26,124.28c-1.01,1.92-3.36,2.64-5.28,1.63s-2.64-3.36-1.63-5.28l65.26-124.28c12.96-24.63-10.38-40.14-17.82-44.32l-2.93-1.63c-10.62-5.91-21.04-7.83-29.44-5.33-6.67,1.97-12.1,6.72-15.94,14.07-.05.1-.09.24-.19.34-39.52,60.41-72.22,122.74-97.29,185.21-.05.14-.09.24-.19.38-9.8,18.59-3.51,41.73,14.02,51.48l2.93,1.63c8.11,4.51,17.57,5.57,26.65,2.88,9.75-2.89,17.72-9.56,22.57-18.78,1.01-1.92,3.36-2.64,5.28-1.63s2.64,3.36,1.63,5.28c-5.66,10.76-14.88,18.63-26.12,22.28"/>
</svg>