<?xml version="1.0" encoding="UTF-8"?>
<svg id="Ebene_1" data-name="Ebene 1" xmlns="http://www.w3.org/2000/svg" viewBox="0 0 1271.66 1041">
  <defs>
    <style>
      .cls-1 {
        fill: #3d4451;
      }

      .cls-2 {
        fill: #3d4552;
      }
    </style>
  </defs>
  <g>
    <path class="cls-1" d="m432.35,554.81h0c-1.01-.67-1.73-1.82-1.82-3.17-.43-5.81-.48-9.03-.48-9.17-.05-2.35,1.87-4.32,4.23-4.32,2.35-.05,4.32,1.87,4.32,4.23,0,.05.05,3.17.43,8.64.14,2.35-1.63,4.37-3.99,4.56-1.06.05-2.02-.24-2.79-.77h.1Z"/>
    <path class="cls-1" d="m1161.29,955h0c-1.92-1.34-2.4-3.94-1.15-5.86,1.3-1.97,3.99-2.55,5.95-1.25,4.47,2.88,8.98,5.95,13.49,9.12l1.39.96c1.92,1.34,2.35,4.03,1.01,5.95-1.34,1.97-3.99,2.4-5.95,1.06,0,0-1.39-.96-1.49-1.01-4.37-3.03-8.84-6.05-13.3-8.98h.05Zm63.87,48.55h0c-.1-.05-.19-.14-.34-.24-4.56-3.94-9.12-7.78-13.59-11.43-1.82-1.54-2.06-4.23-.58-6.05,1.49-1.82,4.18-2.06,6-.58,4.51,3.75,9.17,7.64,13.73,11.57,1.78,1.54,1.97,4.27.43,6.05-1.44,1.68-3.94,1.97-5.71.72l.05-.05Zm-118.18-78.99h0c-1.68-1.2-2.35-3.41-1.44-5.33.96-2.16,3.51-3.07,5.67-2.06,5.33,2.5,10.8,5.19,16.13,7.97,2.11,1.1,2.93,3.65,1.82,5.76-1.06,2.11-3.65,2.93-5.76,1.82-5.23-2.74-10.56-5.33-15.8-7.78-.24-.1-.67-.38-.67-.38h.05Zm-60.17-26.12c.58-2.26,2.93-3.6,5.23-2.98,5.81,1.58,11.62,3.31,17.29,5.19,2.21.72,3.46,3.12,2.74,5.38s-3.12,3.46-5.38,2.74c-5.52-1.82-11.19-3.51-16.86-5.04-.48-.14-.96-.34-1.34-.62-1.44-1.01-2.16-2.88-1.68-4.66Zm-59.54-6.67h0c-1.25-.86-2.02-2.35-1.82-3.99.24-2.35,2.35-4.03,4.71-3.79,6.05.67,12.05,1.44,17.82,2.3,2.35.34,3.94,2.5,3.6,4.85s-2.5,3.94-4.85,3.6c-5.67-.82-11.57-1.58-17.53-2.26-.72-.1-1.39-.38-1.97-.77l.05.05Zm-62.38-3.75h0c-1.15-.77-1.82-2.11-1.82-3.6.05-2.35,2.02-4.18,4.37-4.18,6,.14,11.96.29,17.91.53,2.4.1,4.23,2.11,4.13,4.47-.1,2.35-2.06,4.23-4.42,4.13-5.91-.24-11.81-.38-17.77-.53-.86,0-1.68-.29-2.35-.77l-.05-.05Zm-62.33-.72h0c-1.1-.82-1.82-2.11-1.82-3.6.05-2.4,2.02-4.23,4.37-4.23,6,.1,11.91.19,17.82.24,2.35.05,4.23,1.97,4.23,4.32s-1.97,4.23-4.32,4.23c-5.91-.05-11.86-.14-17.86-.24-.91,0-1.73-.29-2.4-.77v.05Zm-419.93-270.83h0c-.82-.58-1.44-1.39-1.68-2.45-1.49-5.76-2.83-11.72-4.03-17.58-.48-2.35,1.01-4.61,3.31-5.09,2.3-.48,4.56,1.01,5.04,3.31,1.15,5.71,2.5,11.52,3.94,17.19.58,2.3-.82,4.61-3.12,5.19-1.25.34-2.55.05-3.51-.62l.05.05Zm357.6,267.9h0c-1.2-.82-1.97-2.26-1.82-3.84.19-2.3,2.26-4.08,4.61-3.89,5.71.48,11.67.91,17.67,1.25,2.35.14,4.18,2.16,4.03,4.51-.1,2.35-2.16,4.18-4.51,4.03-6.05-.34-12.05-.77-17.86-1.25-.77-.05-1.54-.34-2.11-.77v-.05Zm-337.48-208.93h0c-.62-.43-1.15-1.01-1.49-1.78-2.4-5.47-4.66-11.09-6.82-16.71-.82-2.21.29-4.71,2.5-5.52s4.66.29,5.52,2.5c2.11,5.47,4.32,11,6.67,16.33.96,2.16-.05,4.66-2.21,5.62-1.44.58-3.03.38-4.18-.43h0Zm275.68,200.92h0c-1.34-.91-2.11-2.59-1.78-4.27.43-2.35,2.69-3.89,4.99-3.46,5.71,1.06,11.57,2.06,17.43,2.93,2.35.38,3.94,2.55,3.6,4.9-.38,2.35-2.55,3.94-4.9,3.6-5.95-.91-11.91-1.92-17.72-2.98-.62-.14-1.2-.38-1.68-.72h.05Zm-245.77-146.27h0c-.43-.29-.82-.67-1.1-1.1-3.36-4.95-6.63-10.08-9.7-15.27-1.2-2.02-.53-4.66,1.49-5.86s4.66-.53,5.86,1.49c3.03,5.04,6.19,10.04,9.46,14.89,1.34,1.97.82,4.66-1.15,5.95-1.49,1.06-3.46,1.01-4.85,0v-.1Zm185.07,131.81h0c-1.49-1.01-2.21-2.88-1.68-4.71.67-2.26,3.07-3.55,5.33-2.88,5.67,1.63,11.38,3.27,17.05,4.75,2.31.58,3.65,2.93,3.07,5.23-.58,2.26-2.93,3.6-5.23,3.03-5.76-1.54-11.57-3.17-17.29-4.85-.48-.14-.86-.38-1.25-.62v.05Zm-145.4-83.6h0c-.19-.14-.38-.29-.58-.48-4.23-4.23-8.4-8.64-12.44-13.11-1.58-1.78-1.44-4.47.34-6.05,1.78-1.58,4.47-1.44,6.05.34,3.89,4.37,7.97,8.64,12.1,12.77,1.68,1.68,1.68,4.37,0,6.05-1.49,1.49-3.79,1.63-5.47.48h0Zm87.11,61.32h0c-1.68-1.2-2.31-3.46-1.39-5.38,1.01-2.16,3.6-3.03,5.71-2.02,5.23,2.5,10.61,4.95,16.04,7.25,2.16.91,3.22,3.41,2.31,5.62-.91,2.21-3.41,3.22-5.62,2.3-5.57-2.35-11.09-4.85-16.47-7.44-.19-.1-.58-.34-.58-.34h0Zm-45.91-26.89h0c-2.55-1.78-5.04-3.6-7.54-5.43-1.87-1.44-2.26-4.13-.86-6,1.44-1.87,4.13-2.3,6-.86,4.66,3.41,9.46,6.82,14.41,10.08,1.87,1.25,2.5,3.99,1.2,5.95-1.3,1.97-3.99,2.5-5.95,1.2-2.45-1.63-4.85-3.27-7.25-4.95h0Z"/>
    <path class="cls-1" d="m1264.92,1040.24h0c-.19-.1-.38-.29-.53-.43-2.16-2.11-4.27-4.18-6.39-6.19-1.68-1.63-1.73-4.37-.1-6.05,1.63-1.73,4.32-1.78,6.05-.14,2.16,2.06,4.27,4.13,6.43,6.24,1.68,1.68,1.68,4.37.05,6.05-1.49,1.54-3.84,1.68-5.52.53h0Z"/>
  </g>
  <path class="cls-2" d="m442.53,502.51c-5.23-1.73-10.32-4.66-14.79-8.64-.77-.67-1.25-1.63-1.3-2.69-.05-1.06.34-2.06,1.01-2.83,5.43-6,8.79-14.31,9.46-23.48l16.52-217.67c.62-8.16-.86-16.52-4.27-24.11-.43-1.06-.43-2.21,0-3.22s1.3-1.78,2.35-2.11c5.47-1.73,11.14-2.02,16.86-.91,1.54-.05,3.31.48,5.38,1.68l.1-3.12c.1-2.79.19-5.38.29-6.43.1-1.39-2.69-2.16-8.26-3.07-1.97-.34-4.03-.67-5.95-1.2-6.43-1.78-18.44-5.04-20.36-14.17-1.15-5.47-1.92-11.72-2.74-18.34-2.64-21.13-5.91-47.44-23.72-65.55-1.54-1.54-1.54-4.03,0-5.52,1.54-1.54,4.03-1.54,5.52,0,19.69,19.98,23.15,47.73,25.93,70.06.82,6.48,1.58,12.58,2.64,17.72.91,4.42,11,7.2,14.79,8.21,1.54.38,3.31.67,5.19,1.01,6.19,1.01,15.46,2.59,14.74,11.38-.1.96-.19,4.27-.24,6.05l-.43,10.52c-.05,1.49-.96,2.83-2.35,3.41-1.34.58-2.98.34-4.08-.62-3.99-3.46-5.76-4.23-6.24-4.32-.38.05-.82.05-1.2-.05-3.17-.67-6.24-.77-9.32-.34,2.69,7.59,3.75,15.61,3.17,23.53l-16.52,217.67c-.72,9.36-3.79,18.06-8.84,24.92,3.75,2.74,7.78,4.56,11.96,5.47,11.57,2.5,27.66-2.83,42.98-14.31,20.55-15.37,34.77-37.22,36.16-55.61l7.25-95.46c1.44-19.26-17-50.85-34.72-74-.58-.72-.82-1.63-.82-2.55l1.97-47.64c.24-5.52-3.84-10.37-9.08-10.71-1.82-.14-20.12-1.87-20.89-1.92-8.07-.72-14.98-7.01-16.71-15.27-12.87-60.75-34-83.84-34.24-84.08-1.49-1.58-1.44-4.03.14-5.52s4.03-1.39,5.52.14c.91,1.01,22.81,24.59,36.21,87.88,1.06,4.95,5.09,8.69,9.8,9.12,5.28.53,19.26,1.82,20.7,1.92,9.41.62,16.71,9.08,16.33,18.82l-1.92,46.24c9.89,13.06,37.41,52.05,35.44,78.22l-7.25,95.46c-1.54,20.55-16.95,44.61-39.28,61.27-17.38,12.97-35.34,18.68-49.27,15.7-1.2-.24-2.4-.58-3.6-.96"/>
  <path class="cls-2" d="m520.47,402.82c-.67-.19-1.15-.91-1.06-1.63.62-6.15,1.01-12.87,1.15-19.93,0-.86.72-1.54,1.58-1.54s1.54.72,1.54,1.58c-.14,7.15-.53,13.93-1.2,20.17-.1.86-.86,1.49-1.73,1.39-.14,0-.34-.05-.34-.05"/>
  <path class="cls-2" d="m453.48,483.11c-.53-.14-.96-.62-1.06-1.25-.1-.86.48-1.68,1.34-1.78,34.38-4.8,54.98-25.16,62.91-62.33.19-.86,1.06-1.39,1.87-1.2s1.39,1.01,1.2,1.87c-8.21,38.61-29.68,59.78-65.5,64.73-.24.05-.67-.05-.67-.05"/>
  <path class="cls-2" d="m376.7,502.42c-18.92-6.15-32.46-25.07-31.65-46.44-4.08-67.61-1.15-138.3,8.74-210.18.48-10.23,4.27-18.82,11-24.83,8.07-7.25,20.36-10.71,34.57-9.75l3.36.24c27.08,1.82,43.31,17.34,42.35,40.53l-5.71,137.72c-.1,2.16-1.92,3.84-4.08,3.75s-3.84-1.92-3.75-4.08l5.71-137.72c1.15-27.85-26.6-31.89-35.1-32.46l-3.36-.24c-12.1-.82-22.33,1.97-28.86,7.78-5.23,4.66-8.07,11.24-8.4,19.54v.38c-9.89,71.5-12.77,141.8-8.69,209.03v.38c-.86,20.98,14.74,39.18,34.72,40.53l3.36.24c9.27.62,18.3-2.5,25.31-8.79,7.54-6.77,11.91-16.23,12.34-26.65.1-2.16,1.92-3.84,4.08-3.75s3.84,1.92,3.75,4.08c-.53,12.53-5.81,23.96-14.93,32.13-8.6,7.68-19.64,11.52-31.02,10.76l-3.36-.24c-3.55-.29-7.01-.96-10.32-2.02"/>
  <path class="cls-2" d="m473.22,305.44c-.14-.05-.34-.1-.53-.1-.67-.1-1.34.14-1.87.58-.58.48-.96,1.2-1.01,2.02l-6.29,87.4c-.1,1.58,1.06,3.07,2.55,3.22.67.1,1.34-.14,1.87-.58.58-.48.96-1.2,1.01-2.02l6.29-87.4c.1-1.39-.77-2.74-2.02-3.12m-8.64,95.94c-2.59-.82-4.37-3.41-4.18-6.29l6.29-87.4c.14-1.63.86-3.12,2.11-4.18,1.2-.96,2.69-1.44,4.23-1.3,3.22.34,5.62,3.27,5.38,6.58l-6.29,87.4c-.14,1.63-.86,3.12-2.11,4.18-1.2.96-2.69,1.44-4.23,1.3-.43-.05-.82-.1-1.2-.24"/>
  <path class="cls-2" d="m476.72,256.6c-.14-.05-.34-.1-.53-.1-.67-.1-1.34.14-1.87.58-.58.48-.96,1.2-1.01,2.02l-1.97,27.52c-.14,1.58,1.01,3.07,2.55,3.22.67.1,1.34-.14,1.87-.58.58-.48.96-1.2,1.01-2.02l1.97-27.47c.1-1.39-.77-2.74-2.02-3.12m-4.37,36.01c-2.59-.82-4.37-3.41-4.18-6.29l1.97-27.52c.14-1.63.86-3.12,2.11-4.18,1.2-1.01,2.69-1.49,4.23-1.34,3.22.34,5.62,3.27,5.38,6.58l-1.97,27.52c-.14,1.63-.86,3.12-2.11,4.18-1.2.96-2.69,1.44-4.23,1.3-.43-.05-.82-.1-1.2-.24"/>
  <path class="cls-2" d="m267.26,625.01c-2.02-.67-3.17-2.83-2.5-4.9.62-2.02,2.83-3.17,4.9-2.5,4.13,1.34,8.36,2.64,12.58,3.79,13.35,3.75,27.95,6.87,32.51-3.22,1.49-3.31,1.58-6.24.19-8.93-2.69-5.23-10.56-8.93-17.14-10.23-37.31-7.44-84.95-22.23-155.39-75.73-.34-.29-.77-.62-1.2-.96-5.43-4.27-9.27-6.43-11.81-3.99-3.46,3.27-3.75,5.14,1.15,10.47,30.4,33.28,68.81,60.36,111.02,78.37,1.97.86,2.93,3.17,2.06,5.14-.86,1.97-3.12,2.93-5.14,2.06-43.22-18.44-82.55-46.2-113.71-80.24-2.93-3.22-10.8-11.81-.77-21.37,7.97-7.59,17.82.19,21.99,3.51.43.34.77.62,1.1.86,69.2,52.53,115.73,67.04,152.18,74.29,8.21,1.63,18.44,6.24,22.57,14.31,2.45,4.8,2.45,10.23-.05,15.7-7.73,17-29.82,10.85-41.68,7.54-4.27-1.2-8.6-2.5-12.87-3.89"/>
  <path class="cls-2" d="m302.27,606.67c-.1-.05-.29-.1-.29-.1l-10.04-2.83c-1.92-.58-3.84-.38-5.28.48-.67.43-1.58,1.2-1.92,2.5-.62,2.64,1.73,5.67,5.04,6.63l10.04,2.83c1.87.58,3.84.38,5.28-.48.67-.43,1.58-1.2,1.92-2.5.62-2.55-1.54-5.47-4.75-6.53m-13.78,9.6c-4.75-1.58-7.83-6.1-6.82-10.23.48-1.87,1.68-3.46,3.41-4.47,2.21-1.3,4.99-1.58,7.73-.82l10.04,2.83c5.04,1.44,8.26,6.05,7.25,10.32-.48,1.87-1.68,3.46-3.41,4.47-2.21,1.3-4.99,1.58-7.73.82l-10.04-2.83c-.14-.05-.43-.14-.43-.14"/>
  <path class="cls-2" d="m352.5,26.88c-.14-.05-.24-.1-.38-.14-5.28-2.35-10.8-4.51-16.33-6.43-2.02-.72-3.12-2.98-2.4-4.99.72-2.02,2.88-3.07,4.99-2.4,5.71,1.97,11.43,4.23,16.9,6.67,1.97.86,2.83,3.17,1.97,5.14-.82,1.82-2.88,2.74-4.75,2.11"/>
  <path class="cls-2" d="m45.22,177.08c-4.13-1.34-7.83-3.65-10.8-6.77-3.94-4.08-6.67-9.12-7.88-14.6-2.26-9.94,8.55-39.81,34.62-70.11C84.45,58.57,127.04,22.99,197.82,7.09c34.05-7.68,67.37-9.12,99.07-4.32,2.11.34,3.6,2.35,3.27,4.47-.29,2.11-2.31,3.6-4.42,3.27-30.68-4.66-63.05-3.27-96.18,4.18-68.72,15.41-109.97,49.8-132.44,75.97-26.27,30.54-34.19,57.62-32.94,63.29.91,4.03,2.98,7.83,5.91,10.9,3.89,4.03,9.51,6.05,15.51,5.62,6.43-.48,12.39-3.79,15.94-8.88,54.98-78.46,84.18-91.91,137.72-103.96,53.49-12,85.62-12.34,168.93,35.01,5.52,3.12,12.44,3.51,18.54,1.01,5.76-2.4,9.99-6.96,11.57-12.58,1.06-3.75,1.2-7.59.34-11.33-.91-4.18-12-17.67-34.48-31.41-1.82-1.15-2.4-3.55-1.3-5.38,1.15-1.82,3.55-2.4,5.38-1.3,22.71,13.88,36.35,28.81,38.03,36.35,1.1,4.95.96,10.23-.43,15.17-2.26,7.92-8.12,14.36-16.13,17.67-8.26,3.41-17.77,2.88-25.35-1.44-80.91-46-111.93-45.76-163.36-34.19-52.58,11.81-79.38,24.25-133.06,100.79-4.95,7.11-12.87,11.52-21.7,12.2-3.79.24-7.49-.19-10.9-1.3"/>
  <path class="cls-2" d="m132.28,85.51c-.29-.1-.58-.29-.77-.58-.48-.67-.34-1.68.38-2.16,23.96-17.05,50.04-29.05,75.3-34.72,44.71-10.04,95.13-4.27,138.35,15.85.77.34,1.15,1.3.77,2.06s-1.3,1.15-2.06.77c-42.64-19.83-92.34-25.5-136.38-15.61-24.87,5.62-50.52,17.43-74.19,34.24-.43.29-.91.34-1.39.19"/>
  <path class="cls-2" d="m88.15,126.13c-.19-.05-.38-.14-.53-.29-.67-.58-.77-1.54-.19-2.21,7.4-8.88,15.85-17.53,25.11-25.59.67-.58,1.63-.53,2.21.14s.48,1.63-.14,2.21c-9.12,7.97-17.48,16.47-24.78,25.21-.43.48-1.1.67-1.68.48"/>
  <path class="cls-2" d="m224.19,21.83c-2.06-1.01-11.33-1.2-22.86,1.39-11.04,2.5-19.45,6.63-21.22,8.5,2.69.86,11.24-1.06,21.08-3.27l1.2-.29c5.95-1.34,19.54-4.42,21.75-6.34m-45.04,12.82c-.58-.19-1.06-.43-1.44-.77-.82-.62-1.15-1.54-.91-2.5.96-4.23,14.84-9.17,23.91-11.24,8.45-1.92,23-3.65,26.17-.24.67.72.91,1.63.62,2.55-.86,2.79-6.05,4.66-24.3,8.74l-1.2.29c-12.73,2.83-19.4,4.27-22.86,3.12"/>
  <path class="cls-2" d="m121.28,565.37c-20.36-6.63-39.62-18.82-48.84-35.01l-47.4-83.17c-13.01-22.81-4.8-69.82-1.44-85.86l-21.51-40.96c-4.51-8.64-1.49-19.4,6.72-24.01,1.25-.67,13.35-7.88,17.91-10.56,4.08-2.4,6.1-7.49,4.95-12.44-14.98-62.91-5.28-93.59-4.85-94.89.67-2.06,2.83-3.17,4.9-2.5,2.02.67,3.17,2.83,2.5,4.9-.1.29-9.36,30.2,5.04,90.66,1.97,8.26-1.58,16.85-8.55,20.98-.67.38-16.47,9.8-18.06,10.66-4.56,2.55-6.19,8.64-3.6,13.59l22.19,42.21c.43.82.58,1.73.38,2.64-6.15,28.52-9.27,64.97.29,81.73l47.4,83.17c14.69,25.79,57.82,40.43,85.14,35.82,2.16-.34,4.18,1.1,4.51,3.22.34,2.16-1.1,4.18-3.22,4.51-12.87,2.16-28.96.38-44.42-4.66"/>
  <path class="cls-2" d="m188.99,555.29c-.38-.1-.72-.29-1.06-.53-1.73-1.25-2.16-3.65-.91-5.43.77-1.1,1.49-2.3,2.16-3.51-7.44-4.03-13.97-10.56-18.63-18.73l-108.04-189.68c-3.94-6.91-6.39-14.65-7.2-22.62-2.93.91-5.71,2.35-8.26,4.32-.34.24-.67.43-1.06.58-.38.34-1.63,1.78-3.79,6.58-.58,1.34-1.92,2.26-3.41,2.3-1.54.05-2.93-.72-3.6-2.06l-4.85-9.22c-.86-1.63-2.4-4.61-2.88-5.47-4.42-7.68,3.31-13.06,8.45-16.61,1.58-1.1,3.07-2.16,4.27-3.17,2.98-2.55,10.9-9.32,9.84-13.73-1.25-5.14-3.17-10.95-5.19-17.14-7.06-21.37-15.8-47.92-6.58-74.43.67-2.02,3.03-3.07,4.95-2.4,2.02.67,3.12,2.93,2.4,4.95-8.36,24.01-.1,49.22,6.58,69.44,2.11,6.34,4.08,12.34,5.38,17.77,2.21,9.08-7.25,17.14-12.34,21.51-1.49,1.3-3.17,2.5-4.85,3.65-4.61,3.22-6.87,5.09-6.15,6.29.53.96,1.78,3.41,3.03,5.81l1.39,2.69c1.34-1.97,2.69-3.22,4.13-3.84,4.71-3.51,9.94-5.62,15.61-6.39,1.1-.14,2.21.19,3.07.91.82.72,1.34,1.78,1.34,2.88.14,8.36,2.35,16.52,6.43,23.63l108.04,189.68c4.56,7.97,11.14,14.07,18.58,17.14.96.38,1.73,1.15,2.11,2.11.43.96.38,2.02,0,2.98-1.25,2.98-2.83,5.76-4.61,8.31-1.01,1.44-2.79,1.97-4.37,1.44"/>
  <path class="cls-2" d="m121.57,547.46h0c-22.38-7.97-41.54-28.52-58.49-62.71-.38-.77-.05-1.68.72-2.06s1.73-.05,2.11.72c16.61,33.47,35.2,53.45,56.76,61.18.82.29,1.25,1.2.96,2.02s-1.15,1.2-1.97.96"/>
  <path class="cls-2" d="m202.43,542.42c-11.24-3.65-20.46-11.52-26.12-22.28-1.01-1.92-.29-4.27,1.63-5.28,1.92-1.01,4.27-.29,5.28,1.63,4.85,9.22,12.82,15.89,22.57,18.78,9.08,2.69,18.54,1.63,26.65-2.88l2.93-1.63c17.53-9.75,23.82-32.89,14.02-51.48-.1-.14-.14-.24-.19-.38-25.07-62.47-57.77-124.8-97.29-185.21-.1-.1-.14-.24-.19-.34-3.84-7.35-9.27-12.1-15.94-14.07-8.4-2.5-18.82-.58-29.44,5.33l-2.93,1.63c-7.44,4.18-30.78,19.69-17.82,44.32l65.26,124.28c1.01,1.92.29,4.27-1.63,5.28s-4.27.29-5.28-1.63l-65.26-124.28c-10.76-20.55-2.74-41.54,20.94-54.79l2.98-1.63c12.44-6.96,25.02-9.08,35.44-6,8.6,2.55,15.75,8.69,20.55,17.77,39.71,60.75,72.61,123.41,97.82,186.27,11.62,22.28,3.89,49.94-17.19,61.75l-2.93,1.63c-9.94,5.62-21.56,6.87-32.65,3.55-.38-.1-.72-.19-1.1-.34"/>
</svg>