<?xml version="1.0" encoding="UTF-8"?>
<svg id="Ebene_1" data-name="Ebene 1" xmlns="http://www.w3.org/2000/svg" viewBox="0 0 783.1 610.77">
  <defs>
    <style>
      .cls-1 {
        fill: #3d4552;
      }
    </style>
  </defs>
  <path class="cls-1" d="m660.25,477.26c-1.29.58-2.88.49-4.08-.35-1.82-1.29-2.22-3.81-.84-5.63,2.75-3.68,4.87-6.6,6.16-8.42,5.89-8.2,31.29-28.14,58.14-49.28,1.99-1.55,3.99-3.15,5.98-4.7-64.03,39.84-174.11,105.56-238.41,128.25-68.91,24.33-148.36,34.26-170.83,1.77-25.04-30.62,7.67-102.72,51.23-160.68,40.64-54.06,136.4-138.88,193.61-187.76-2.08,1.42-4.21,2.84-6.29,4.25-28.32,19.19-55.04,37.36-64.7,40.55-22.78,7.53-118.72,41.48-137.29,57.83-10.33,9.08-38.02,45.87-55.39,89.83-.84,2.08-3.23,3.19-5.32,2.39-2.13-.75-3.19-3.06-2.35-5.18,18.08-45.82,46.49-83.18,57.65-93.02,22.87-20.12,139.06-59.16,140.26-59.56,8.51-2.79,37.27-22.29,62.57-39.48,25.08-17.02,48.79-33.15,57.52-36.47,1.91-.71,4.03,0,5.01,1.68s.58,3.86-.97,5.14c-1.77,1.46-178.76,146.06-237.7,224.41-49.37,65.67-70.46,127.76-51.27,150.98.09.09.13.18.22.27,16.97,24.82,83.36,22.95,161.44-4.61,93.15-32.88,284.85-157.94,286.76-159.22,1.68-1.11,3.94-.89,5.27.58,1.37,1.42,1.42,3.63.18,5.23-5.81,7.22-28.27,24.95-52.11,43.69-24.06,18.92-51.27,40.37-56.5,47.59-1.33,1.82-3.46,4.74-6.25,8.51-.44.62-1.02,1.06-1.68,1.33"/>
  <path class="cls-1" d="m562.05,586.32c-17.9,7.98-58.23,21.36-105.56,24.02-47.68,2.66-113.27-5.76-154.7-60.84-26.59-35.32-34.88-78.21-24.68-127.45.44-2.22,2.61-3.63,4.87-3.28,2.22.4,3.68,2.48,3.19,4.7-9.7,46.93-1.86,87.7,23.31,121.16,75.87,100.82,237.92,42.54,256.98,31.02,4.96-3.01,15.51-11.96,37.22-37.62,1.46-1.73,4.08-1.99,5.81-.62,1.73,1.42,1.95,3.94.49,5.67-18.3,21.58-31.15,34.48-39.35,39.4-1.68,1.02-4.25,2.3-7.62,3.81"/>
  <path class="cls-1" d="m620.5,528.58c-1.37.62-3.01.49-4.21-.49-1.77-1.37-2.04-3.9-.62-5.67,3.15-3.9,6.29-7.8,9.35-11.65,1.42-1.77,3.99-2.13,5.81-.8,1.77,1.33,2.08,3.86.66,5.67-3.06,3.9-6.2,7.8-9.39,11.74-.44.53-.97.93-1.55,1.2"/>
  <path class="cls-1" d="m569.01,575.99c-.75.31-1.64.09-2.08-.62-.44-.75-.22-1.77.58-2.22,9.48-5.72,13.16-19.63,8.07-30.4-3.55-7.44-20.07-30.05-84.6-7.27-.84.31-1.77-.13-2.08-.97s.18-1.77,1.02-2.08c67.14-23.71,84.86.84,88.67,8.91,5.85,12.41,1.64,27.92-9.39,34.57-.04,0-.13.09-.18.09"/>
  <path class="cls-1" d="m372.26,377.51c-.53.22-1.15.18-1.64-.13-.71-.53-.89-1.51-.31-2.26,40.81-54.29,23.71-76.44,17.46-81.94-9-7.93-23.58-8.46-31.86-1.2-.71.62-1.73.58-2.35-.09-.58-.66-.53-1.68.18-2.26,9.66-8.51,25.92-7.98,36.25,1.15,6.74,5.94,25.39,29.73-17.06,86.24-.18.22-.4.4-.66.53"/>
  <path class="cls-1" d="m503.03,518.92c-16.57,7.4-32.88,14.05-48.57,19.76-2.17.8-4.48-.27-5.23-2.39-.75-2.08.44-4.39,2.53-5.18,131.35-47.64,311.93-169.37,321.99-177.39,1.64-3.06,1.73-19.99-2.39-44.54-4.08-24.42-9.22-38.29-12.05-41.48l-65.41,47.82c-3.28,2.44-7.36,3.23-12.05,2.35-2.88,2.13-6.47,4.79-10.5,7.76-32.66,24.2-50.12,36.78-54.6,38.29-12.81,4.39-31.55,1.15-42.59-13.56-11.08-14.71-8.77-33.32-.8-44.14,2.84-3.81,20.07-16.62,53-40.41,4.03-2.88,7.62-5.49,10.55-7.62.53-4.65,2.48-8.29,5.81-10.68l65.41-47.82c-2.3-3.59-14.27-12.45-36.78-23.4-22.69-10.99-39.09-15.82-42.54-15.16-10.68,7.13-180.45,141.58-265,251.62-1.37,1.82-3.94,2.22-5.76.89s-2.17-3.86-.75-5.63c87.26-113.58,259.06-248.56,267.44-253.79,6.51-4.03,28.54,4.56,45.73,12.59,17.81,8.29,38.82,20.03,44.49,28.23,3.28,4.74,1.64,8.46-.97,10.37l-66.38,48.57c-.58.44-2.39,1.77-2.53,6.34,0,1.24-.66,2.44-1.68,3.19-3.15,2.3-7.36,5.32-12.14,8.77-15.69,11.34-48.3,34.92-51.18,38.6-6.03,8.2-7.8,23.13.84,34.61,8.64,11.52,23.66,14.18,33.37,10.81,4.56-1.68,36.74-25.57,52.29-37.09,4.74-3.5,8.95-6.6,12.1-8.91,1.02-.75,2.35-1.02,3.59-.66,4.48,1.2,6.29-.09,6.91-.53l66.38-48.52c2.61-1.91,6.69-2.39,10.33,2.08,6.29,7.71,11.61,30.98,14.49,50.16,2.79,18.57,4.87,41.74-1.06,46.8-6.65,5.67-149.52,102.9-276.26,159.35"/>
  <path class="cls-1" d="m556.43,483.64s-.13.04-.18.09c-72.37,21.98-121.11,17.15-144.82-14.4-23.71-31.51-14.31-78.92,28.01-140.83.49-.75,1.55-.97,2.3-.49s.93,1.51.44,2.22c-41.48,60.67-50.92,106.8-28.1,137.11,22.82,30.36,70.37,34.79,141.27,13.25.89-.27,1.77.22,2.04,1.06.22.8-.18,1.6-.93,1.95"/>
  <path class="cls-1" d="m645.1,265.04c-1.86.84-3.68,1.86-5.36,3.1l-49.85,36.47c-12.63,9.22-15.47,26.68-6.34,38.82,7.89,10.5,22.25,13.69,34.17,8.38,1.86-.84,3.63-1.86,5.36-3.1l49.85-36.47c12.59-9.22,15.47-26.68,6.34-38.82-7.89-10.5-22.25-13.69-34.17-8.38m3.28,7.31c8.55-3.81,18.74-1.33,24.2,5.94,3.1,4.17,4.39,9.31,3.5,14.54-.84,5.23-3.68,9.84-8.02,12.98l-49.85,36.47c-1.2.89-2.48,1.6-3.81,2.22-8.55,3.81-18.74,1.33-24.2-5.94-6.47-8.6-4.48-20.96,4.48-27.52l49.85-36.47c1.2-.89,2.44-1.6,3.77-2.22"/>
  <path class="cls-1" d="m418.52,426.39c-.8.35-1.37,1.06-1.73,2.17-1.68,5.23,1.73,17.59,10.41,29.11,8.51,11.3,20.43,18.75,25.88,18.35,1.33-.09,1.82-.66,2.04-1.06,2.75-4.65-3.99-13.56-13.29-25.92l-.97-1.33c-6.07-8.07-17.37-23.13-22.11-21.45-.09,0-.13.04-.22.09m37.05,52.34c-.62.27-1.37.49-2.3.53-7.31.53-20.16-8.24-28.72-19.59-8.46-11.26-13.16-24.99-10.9-31.99.71-2.22,2.08-3.72,4.03-4.39,5.94-2.08,13.34,5.94,25.84,22.51l.97,1.33c10.41,13.83,17.28,22.95,13.47,29.42-.44.75-1.2,1.6-2.44,2.17"/>
  <path class="cls-1" d="m688.53,206.99c-.58.27-1.24.18-1.73-.22-.66-.58-.75-1.6-.18-2.26,0-.09.13-.18.09-.44-.49-2.61-8.2-9.35-28.32-19.63-24.86-12.72-31.29-12.05-32.7-11.57-.4.18-.49.31-.53.4-.35.84-1.33,1.24-2.17.93s-1.24-1.24-.89-2.08c.44-1.06,1.29-1.82,2.48-2.26,6.03-2.22,22.56,5.14,35.36,11.74,13.07,6.69,28.85,15.91,29.96,21.85.22,1.2-.09,2.26-.84,3.15-.18.18-.35.35-.58.44"/>
  <path class="cls-1" d="m761.65,355.57c-.4.18-.8.27-1.2.31-.93.09-1.73-.53-1.77-1.42-.09-.89.62-1.68,1.51-1.77.09,0,.27,0,.53-.4.89-1.15,3.41-7.05-1.77-34.21-4.17-21.98-8.46-31.2-10.86-32.39-.27-.13-.4-.09-.44-.04-.84.35-1.82,0-2.17-.8s0-1.77.89-2.13c1.11-.49,2.26-.44,3.32.13,5.45,2.75,9.84,20.34,12.54,34.61,3.86,20.34,4.25,32.7,1.11,36.78-.49.62-1.06,1.11-1.68,1.37"/>
  <path class="cls-1" d="m706.34,260.03c-2.13.93-4.65.18-5.76-1.86-1.15-2.13-.35-4.83,1.86-6.03,0,0,3.01-1.64,7.58-4.74,2.04-1.42,4.87-.93,6.25,1.06,1.37,1.99.84,4.74-1.24,6.16-5.01,3.37-8.24,5.14-8.38,5.23-.13.04-.22.13-.35.18"/>
  <path class="cls-1" d="m518.01,16.66s-.4.18-.62.22c-5.94,1.68-11.92,3.68-17.81,5.85-2.35.89-4.92-.27-5.76-2.53s.44-4.87,2.7-5.72c6.12-2.3,12.36-4.34,18.57-6.12,2.39-.66,4.87.66,5.5,3.01.58,2.13-.53,4.34-2.57,5.23"/>
  <path class="cls-1" d="m440.72,53.97c-1.95.84-4.25.31-5.5-1.42-1.42-1.99-.89-4.74,1.2-6.16,5.36-3.72,10.86-7.27,16.35-10.59,2.17-1.29,4.92-.66,6.16,1.42,1.29,2.08.58,4.79-1.6,6.07-5.27,3.19-10.59,6.65-15.82,10.24-.27.18-.49.31-.75.44"/>
  <path class="cls-1" d="m584.17,8.59c-.62.27-1.33.44-2.08.4-6.16-.22-12.45-.22-18.61.13-2.48.13-4.56-1.73-4.65-4.17s1.86-4.52,4.39-4.65c6.47-.35,13.03-.4,19.5-.13,2.48.09,4.39,2.13,4.21,4.56-.13,1.73-1.2,3.15-2.7,3.86"/>
  <path class="cls-1" d="m391.49,98.86c-1.55.71-3.41.49-4.74-.62-1.86-1.55-2.04-4.34-.44-6.2,4.39-5.05,8.82-9.79,13.12-14.18,1.77-1.77,4.61-1.86,6.38-.22,1.77,1.68,1.82,4.48.04,6.25-4.17,4.25-8.46,8.91-12.76,13.83-.44.53-1.02.93-1.6,1.2"/>
  <path class="cls-1" d="m350.81,151.64c-1.37.62-3.06.53-4.39-.31-2.04-1.33-2.53-4.08-1.11-6.12,3.77-5.41,7.53-10.64,11.12-15.55,1.46-1.99,4.3-2.48,6.29-1.11s2.44,4.12.97,6.12c-3.59,4.87-7.27,10.06-11.03,15.42-.49.71-1.15,1.24-1.91,1.55"/>
  <path class="cls-1" d="m648.95,21.8c-1.06.49-2.3.53-3.5.13-5.76-2.17-11.7-4.08-17.59-5.72-2.39-.66-3.72-3.1-3.01-5.45s3.23-3.72,5.63-3.06c6.16,1.68,12.32,3.72,18.35,5.98,2.3.89,3.41,3.41,2.48,5.67-.44,1.15-1.33,1.99-2.39,2.44"/>
  <path class="cls-1" d="m313.85,207.03c-1.33.58-2.92.53-4.21-.22-2.08-1.29-2.7-3.99-1.37-6.07,3.46-5.41,6.91-10.72,10.37-15.95,1.37-2.08,4.12-2.7,6.25-1.46,2.08,1.29,2.66,3.99,1.33,6.07-3.41,5.23-6.87,10.55-10.33,15.91-.49.8-1.2,1.37-1.99,1.73"/>
  <path class="cls-1" d="m706.16,53.7c-1.51.66-3.28.53-4.61-.53-4.83-3.72-9.84-7.27-14.98-10.59-2.04-1.33-2.57-4.08-1.2-6.12,1.42-2.04,4.21-2.61,6.25-1.29,5.36,3.46,10.59,7.18,15.6,11.03,1.95,1.51,2.22,4.25.66,6.2-.49.58-1.06,1.02-1.73,1.33"/>
  <path class="cls-1" d="m278,263.04c-1.33.58-2.92.53-4.21-.22-2.08-1.29-2.7-3.99-1.37-6.07,3.46-5.36,6.87-10.68,10.28-16,1.33-2.08,4.12-2.75,6.2-1.51s2.7,3.99,1.37,6.07c-3.41,5.32-6.82,10.64-10.28,16-.49.8-1.2,1.37-1.99,1.73"/>
  <path class="cls-1" d="m241.31,318.53c-1.37.62-3.01.53-4.34-.31-2.04-1.33-2.57-4.08-1.2-6.12,3.59-5.23,7.13-10.46,10.64-15.69,1.37-2.08,4.17-2.66,6.25-1.37,2.08,1.29,2.66,4.03,1.24,6.07-3.5,5.27-7.09,10.5-10.68,15.78-.49.71-1.15,1.29-1.95,1.6"/>
  <path class="cls-1" d="m750.7,100.99c-1.99.89-4.39.27-5.58-1.55-3.23-4.92-6.87-9.84-10.77-14.62-1.55-1.86-1.2-4.65.75-6.2s4.79-1.29,6.34.58c4.12,5.01,7.89,10.15,11.3,15.33,1.33,2.04.71,4.79-1.42,6.12-.22.13-.4.27-.62.35"/>
  <path class="cls-1" d="m202.4,372.54c-1.46.66-3.19.53-4.52-.44-1.99-1.42-2.39-4.17-.89-6.16,3.86-5.05,7.62-10.1,11.34-15.2,1.46-1.99,4.3-2.48,6.29-1.11s2.44,4.12.97,6.12c-3.77,5.14-7.58,10.24-11.43,15.33-.49.62-1.11,1.11-1.82,1.42"/>
  <path class="cls-1" d="m160.21,424.13c-1.55.71-3.41.49-4.79-.62-1.86-1.55-2.04-4.34-.4-6.2,4.08-4.65,8.24-9.44,12.36-14.36,1.6-1.91,4.43-2.22,6.34-.66,1.91,1.51,2.17,4.3.53,6.2-4.17,4.92-8.38,9.84-12.5,14.49-.44.53-1.02.93-1.6,1.2"/>
  <path class="cls-1" d="m771.22,161.79c-.53.22-1.11.4-1.73.4-2.48.09-4.52-1.82-4.56-4.25,0-5.81-.75-11.74-1.99-17.64-.49-2.35,1.06-4.74,3.5-5.27,2.44-.53,4.83.93,5.32,3.28,1.37,6.47,2.13,12.94,2.17,19.32,0,1.82-1.11,3.46-2.7,4.17"/>
  <path class="cls-1" d="m113.81,472.21c-1.68.75-3.72.44-5.05-.93-1.68-1.73-1.6-4.52.22-6.25,4.52-4.25,9.13-8.69,13.6-13.16,1.77-1.77,4.61-1.82,6.38-.13,1.77,1.68,1.73,4.48,0,6.25-4.56,4.52-9.22,9.04-13.83,13.34-.4.35-.84.66-1.29.84"/>
  <path class="cls-1" d="m62.54,515.15c-1.91.84-4.17.35-5.41-1.33-1.46-1.95-1.02-4.7.97-6.2,5.01-3.72,10.06-7.62,15.02-11.57,1.95-1.55,4.79-1.29,6.34.58s1.2,4.65-.75,6.2c-5.05,4.03-10.19,7.98-15.29,11.79-.27.22-.58.4-.89.53"/>
  <path class="cls-1" d="m6.31,551.49c-2.13.93-4.61.18-5.76-1.82-1.2-2.13-.35-4.83,1.82-6.03,5.49-3.01,10.99-6.2,16.44-9.48,2.17-1.33,4.92-.66,6.16,1.37,1.29,2.08.58,4.79-1.55,6.07-5.54,3.32-11.17,6.6-16.75,9.66-.13.04-.27.13-.35.18"/>
  <path class="cls-1" d="m749.33,222.72c-1.46.66-3.19.53-4.56-.44-1.95-1.46-2.35-4.21-.8-6.16,3.86-4.96,7.22-10.1,10.02-15.24,1.2-2.17,3.9-3.06,6.12-1.95,2.17,1.11,3.01,3.77,1.82,5.94-3.01,5.58-6.69,11.12-10.81,16.48-.49.62-1.11,1.11-1.77,1.37"/>
</svg>