<svg xmlns="http://www.w3.org/2000/svg" height="24" viewBox="0 -960 960 960" width="24"><path d="M247.846-260.615q51-36.693 108.231-58.039Q413.308-340 480-340q66.692 0 123.923 21.346 57.231 21.346 108.231 58.039 39.615-41 63.731-96.847Q800-413.308 800-480q0-133-93.5-226.5T480-800q-133 0-226.5 93.5T160-480q0 66.692 24.115 122.538 24.116 55.847 63.731 96.847ZM480-460q-50.539 0-85.269-34.731Q360-529.461 360-580q0-50.539 34.731-85.269Q429.461-700 480-700q50.539 0 85.269 34.731Q600-630.539 600-580q0 50.539-34.731 85.269Q530.539-460 480-460Zm0 340q-75.308 0-141-28.038-65.692-28.039-114.308-76.654Q176.077-273.308 148.038-339 120-404.692 120-480t28.038-141q28.039-65.692 76.654-114.308Q273.308-783.923 339-811.962 404.692-840 480-840t141 28.038q65.692 28.039 114.308 76.654Q783.923-686.692 811.962-621 840-555.308 840-480t-28.038 141q-28.039 65.692-76.654 114.308Q686.692-176.077 621-148.038 555.308-120 480-120Z"/></svg>