<svg xmlns="http://www.w3.org/2000/svg" height="24" viewBox="0 -960 960 960" width="24"><path d="M186.154-186.154v-40H310l-42.154-41.692q-46.615-45.231-67.231-99.231Q180-421.077 180-476.462q0-96.384 54.961-174.423Q289.923-728.923 380-762.308v42.462q-72.769 30.615-116.384 96.961Q220-556.538 220-476.462q0 48.847 18.539 94.808 18.538 45.962 57.615 85.039l40.769 40.769v-121.077h40v190.769H186.154ZM580-197.692v-42.462q72.769-30.615 116.385-96.961Q740-403.462 740-483.538q0-48.847-18.539-94.808-18.538-45.962-57.615-85.039l-40.769-40.769v121.077h-40v-190.769h190.769v40H650l42.154 41.692q45.923 45.923 66.885 99.577Q780-538.923 780-483.538q0 96.384-54.961 174.423Q670.077-231.077 580-197.692Z"/></svg>