<?xml version="1.0" encoding="utf-8"?>
<!-- Generator: Adobe Illustrator 27.5.0, SVG Export Plug-In . SVG Version: 6.00 Build 0)  -->
<svg version="1.1" id="Ebene_1" xmlns="http://www.w3.org/2000/svg" xmlns:xlink="http://www.w3.org/1999/xlink" x="0px" y="0px"
	 viewBox="0 0 26 28" style="enable-background:new 0 0 26 28;" xml:space="preserve">
<style type="text/css">
	.st0{fill-rule:evenodd;clip-rule:evenodd;}
</style>
<path class="st0" d="M21,0c-2.1,3.3-5.1,6.9-7,11.5c0.8,1.8,1.4,3.6,2,5.5c0.3-1,0.6-2,1-3C17,9,18.9,5.3,21,0z M9,17
	c-1.5-4.5-4.8-7-9-9c3.9,3.1,4.4,7.5,5,12l3.7,3.3c1.5,1.6,3.8,4.1,4.3,4.7c4.6-9.4-3.4-20.8-8-28C7.7,6.6,9.7,10.3,9,17z M17,22
	c0,0.7,0,1.3,0,2l4-4c0.6-4.5,1.1-8.9,5-12C20.7,10.5,18.1,15.9,17,22z"/>
</svg>
