<?xml version="1.0" encoding="utf-8"?>
<!-- Generator: Adobe Illustrator 27.5.0, SVG Export Plug-In . SVG Version: 6.00 Build 0)  -->
<svg version="1.1" id="Ebene_1" xmlns="http://www.w3.org/2000/svg" xmlns:xlink="http://www.w3.org/1999/xlink" x="0px" y="0px"
	 viewBox="0 0 34 28" style="enable-background:new 0 0 34 28;" xml:space="preserve">
<style type="text/css">
	.st0{fill-rule:evenodd;clip-rule:evenodd;}
</style>
<path class="st0" d="M26,10c3.5,0,8-4,8-4H23l-3,3l2,7l5-2l-3-4H26z M22,2l-1.2-2h-7.8L12,2l5,6L22,2z M17,11l-1-1l-3,15l4,3l4-3
	l-3-15L17,11z M11,6H0c0,0,4.5,4,8,4h2l-3,4l5,2l2-7L11,6z"/>
</svg>
